<svg width="56" height="68" viewBox="0 0 56 68" fill="none" xmlns="http://www.w3.org/2000/svg">
<path fill-rule="evenodd" clip-rule="evenodd" d="M44.2746 16.283L45.3737 17.0158L46.1102 15.9221L51.116 8.50049L51.8525 7.40678L50.7534 6.67392C46.0878 3.55646 40.6707 1.72616 35.0593 1.37647C29.4479 1.02306 23.8439 2.16141 18.8194 4.67249C13.7949 7.18357 9.52934 10.9744 6.4638 15.6617C3.39452 20.3491 1.6337 25.7655 1.35706 31.3532C1.08041 36.9408 2.30289 42.5023 4.89364 47.465C7.4844 52.4313 11.3537 56.6202 16.109 59.6074C20.8606 62.5947 26.3262 64.2762 31.9452 64.4734C37.5641 64.6705 43.1344 63.3796 48.0878 60.7309L49.2542 60.1097L48.6299 58.949L44.3793 51.0772L43.755 49.9165L42.5886 50.5378C39.4482 52.2156 35.9191 53.034 32.3601 52.9075C28.8011 52.781 25.3356 51.7171 22.3261 49.8235C19.3129 47.93 16.8605 45.2738 15.2193 42.1266C13.5781 38.9794 12.8042 35.4565 12.9799 31.9149C13.1556 28.3734 14.2734 24.9434 16.2174 21.971C18.1614 18.9987 20.8644 16.5955 24.0495 15.007C27.2347 13.4148 30.7862 12.6968 34.3415 12.92C37.8968 13.1432 41.3287 14.3002 44.2896 16.2793L44.2746 16.283Z" fill="#BEBEBD"/>
<path fill-rule="evenodd" clip-rule="evenodd" d="M45.0112 15.1929H45.0149C46.7159 12.7488 48.3384 10.2303 50.0245 7.76758C47.7926 6.27209 45.3738 5.0891 42.8429 4.23347C40.3119 3.37784 37.6726 2.85703 34.9846 2.68962C32.2892 2.52222 29.605 2.70822 26.9918 3.23648C24.3711 3.76846 21.8253 4.64268 19.4177 5.84428C17.0101 7.04588 14.7857 8.55624 12.7931 10.327C10.8043 12.0978 9.04719 14.129 7.57424 16.3759C6.10502 18.6229 4.9461 21.0447 4.12363 23.5706C3.30117 26.1003 2.81143 28.7379 2.68059 31.4126C2.54974 34.0874 2.77405 36.7584 3.34603 39.3625C3.91428 41.9554 4.82647 44.4777 6.07137 46.8548C7.31628 49.2394 8.86401 51.4306 10.6659 53.3836C12.4754 55.3441 14.5427 57.0628 16.8157 58.4914C19.0924 59.9236 21.5411 61.0434 24.0945 61.8246C26.6479 62.6095 29.3059 63.0597 31.9976 63.1527C34.6818 63.2457 37.3623 62.9853 39.9717 62.3789C42.5737 61.7762 45.0972 60.8313 47.4674 59.5665C46.043 56.9661 44.6859 54.2467 43.213 51.6873C41.5382 52.5838 39.7587 53.2497 37.9305 53.6738C36.1062 54.0979 34.2145 54.2802 32.3116 54.2132C30.4125 54.1463 28.5433 53.8301 26.7488 53.2795C24.9506 52.7252 23.2234 51.9402 21.6234 50.9321C20.0158 49.9202 18.5578 48.7075 17.2868 47.3347C16.0157 45.9583 14.9241 44.4107 14.0493 42.733C13.1745 41.0589 12.5314 39.2807 12.1277 37.4467C11.7277 35.6238 11.5707 33.7451 11.6641 31.8553C11.7576 29.9692 12.1015 28.1092 12.681 26.331C13.2604 24.549 14.0754 22.8415 15.111 21.2604C16.1465 19.6794 17.384 18.2471 18.7896 16.9972C20.1915 15.7509 21.7617 14.6833 23.459 13.8388C25.1562 12.9906 26.9507 12.3768 28.79 12.0011C30.6368 11.6253 32.5322 11.4914 34.4201 11.6105C36.3155 11.7295 38.1773 12.0978 39.9568 12.7005C41.7363 13.2994 43.4373 14.1364 45.0149 15.1892L45.0112 15.1929ZM44.6411 18.1058L43.542 17.3729C42.1625 16.4503 40.6708 15.7212 39.1044 15.1892C37.5417 14.661 35.908 14.3373 34.2482 14.2331C32.5808 14.129 30.9209 14.2443 29.3097 14.5717C27.6909 14.899 26.117 15.4422 24.6291 16.1825C23.1412 16.9265 21.7692 17.8565 20.5392 18.9502C19.3093 20.044 18.2251 21.2976 17.3167 22.689C16.4082 24.0766 15.6942 25.5721 15.1857 27.1345C14.6773 28.697 14.3745 30.3264 14.2923 31.9818C14.21 33.6335 14.3521 35.2853 14.7035 36.8961C15.0549 38.4957 15.6194 40.0545 16.3858 41.5239C17.1522 42.9934 18.1055 44.3475 19.2233 45.5602C20.3411 46.773 21.6196 47.8332 23.0216 48.7149C24.431 49.6003 25.9413 50.2922 27.5189 50.7758C29.0966 51.2595 30.7377 51.5385 32.4014 51.598C34.0575 51.6575 35.7136 51.4938 37.3287 51.1181C38.9362 50.7461 40.4951 50.162 41.9606 49.3808L44.2897 48.1346L51.0413 60.6416L48.7123 61.8841C46.129 63.2643 43.3887 64.291 40.5662 64.9458C37.7474 65.6005 34.8314 65.8832 31.9004 65.7791C28.9732 65.6749 26.0871 65.1876 23.3169 64.3357C20.543 63.4838 17.8812 62.2673 15.4101 60.7123C12.9315 59.1535 10.6846 57.286 8.72194 55.1619C6.75551 53.0302 5.06947 50.6456 3.72362 48.0676C2.37403 45.4821 1.38334 42.7404 0.762757 39.9168C0.14591 37.1044 -0.100828 34.2027 0.044972 31.2862C0.187034 28.377 0.717895 25.5088 1.61513 22.7634C2.50862 20.0142 3.76848 17.3841 5.3648 14.9437C6.96113 12.5033 8.87148 10.2973 11.0361 8.37024C13.2006 6.44694 15.6194 4.80265 18.2363 3.49689C20.8533 2.19113 23.6197 1.23878 26.4609 0.662159C29.3097 0.0855407 32.2294 -0.122786 35.1454 0.0632199C38.0689 0.245506 40.94 0.814683 43.6878 1.74099C46.4318 2.6673 49.0562 3.95446 51.4899 5.58015L53.6844 7.04588L45.7327 18.8312L44.6374 18.1021L44.6411 18.1058Z" fill="#1A1A18"/>
<path fill-rule="evenodd" clip-rule="evenodd" d="M43.8447 33.3324C43.8447 39.731 38.6295 44.9206 32.1994 44.9206C25.7692 44.9206 20.5541 39.731 20.5541 33.3324C20.5541 26.9338 25.7692 21.7442 32.1994 21.7442C38.6295 21.7442 43.8447 26.9338 43.8447 33.3324ZM20.5541 50.8281C23.8925 53.0304 27.8927 54.3139 32.1994 54.3139C43.8447 54.3139 53.2881 44.9206 53.2881 33.3287C53.2881 21.7368 43.8484 12.3435 32.1994 12.3435C20.5503 12.3435 11.6266 21.2346 11.1331 32.3875H11.1107V67.777H20.5541V50.8244V50.8281Z" fill="white"/>
<path d="M41.3544 37.4876C43.5147 32.396 41.1181 26.5258 36.0014 24.3761C30.8848 22.2264 24.9856 24.6112 22.8253 29.7028C20.665 34.7944 23.0616 40.6646 28.1782 42.8143C33.2949 44.964 39.1941 42.5791 41.3544 37.4876Z" fill="#BEBEBD"/>
<path fill-rule="evenodd" clip-rule="evenodd" d="M11.6378 32.8598V65.6898H20.0232V49.8458L20.8457 50.389C21.0363 50.5155 21.2382 50.6419 21.4513 50.7721C21.6681 50.9061 21.8775 51.0288 22.0756 51.1404C23.5934 51.9961 25.2309 52.6657 26.9581 53.1195C28.6291 53.5585 30.3862 53.7892 32.1994 53.7892C37.8781 53.7892 43.0147 51.4976 46.7383 47.796C50.458 44.0945 52.7609 38.9794 52.7609 33.3322C52.7609 27.6851 50.458 22.5699 46.7383 18.8684C43.0185 15.1669 37.8781 12.8753 32.1994 12.8753C26.5207 12.8753 21.6831 15.033 17.9932 18.5448C14.2847 22.0714 11.9033 26.9671 11.6603 32.4171L11.6416 32.8598H11.6378ZM9.4284 31.1002V31.089C9.99665 25.3005 12.7444 20.1481 16.8455 16.4578C20.9055 12.7972 26.2889 10.5688 32.1956 10.5688C38.5136 10.5688 44.2297 13.1171 48.372 17.2353C52.5104 21.3535 55.0713 27.0452 55.0713 33.3322C55.0713 39.6192 52.5104 45.3073 48.372 49.4292C44.2335 53.5473 38.5136 56.0956 32.1956 56.0956C30.3825 56.0956 28.6179 55.8873 26.9281 55.4893C25.3281 55.1135 23.7916 54.5704 22.3411 53.8784V67.9963H9.31999C9.31999 55.8985 8.83773 43.2129 9.4284 31.1002ZM39.1641 40.2703C37.3809 42.0448 34.9172 43.1422 32.1956 43.1422C29.474 43.1422 27.0104 42.0448 25.2271 40.2703C23.4439 38.4958 22.3411 36.0442 22.3411 33.336C22.3411 30.6277 23.4439 28.1762 25.2271 26.4017C27.0104 24.6272 29.474 23.5297 32.1956 23.5297C34.9172 23.5297 37.3809 24.6272 39.1641 26.4017C40.9474 28.1762 42.0502 30.6277 42.0502 33.336C42.0502 36.0442 40.9474 38.4958 39.1641 40.2703ZM40.8016 41.8997C38.5996 44.0908 35.5528 45.4487 32.1919 45.4487C28.831 45.4487 25.7879 44.0908 23.5822 41.8997C21.3803 39.7085 20.0157 36.6803 20.0157 33.3322C20.0157 29.9841 21.3803 26.9597 23.5822 24.7648C25.7842 22.5737 28.8273 21.2158 32.1919 21.2158C35.5565 21.2158 38.5959 22.5737 40.8016 24.7648C43.0035 26.956 44.3681 29.9841 44.3681 33.3322C44.3681 36.6803 43.0035 39.7048 40.8016 41.8997Z" fill="#000003"/>
</svg>
